<?xml version="1.0" encoding="UTF-8" standalone="no"?>
<!-- Created with Inkscape (http://www.inkscape.org/) -->

<svg
   width="210mm"
   height="297mm"
   viewBox="0 0 210 297"
   version="1.1"
   id="svg5"
   inkscape:version="1.2.2 (732a01da63, 2022-12-09)"
   sodipodi:docname="рисунок.svg"
   xmlns:inkscape="http://www.inkscape.org/namespaces/inkscape"
   xmlns:sodipodi="http://sodipodi.sourceforge.net/DTD/sodipodi-0.dtd"
   xmlns="http://www.w3.org/2000/svg"
   xmlns:svg="http://www.w3.org/2000/svg">
  <sodipodi:namedview
     id="namedview7"
     pagecolor="#505050"
     bordercolor="#eeeeee"
     borderopacity="1"
     inkscape:showpageshadow="0"
     inkscape:pageopacity="0"
     inkscape:pagecheckerboard="0"
     inkscape:deskcolor="#505050"
     inkscape:document-units="mm"
     showgrid="false"
     inkscape:zoom="0.45568138"
     inkscape:cx="419.15252"
     inkscape:cy="616.65894"
     inkscape:window-width="1920"
     inkscape:window-height="1017"
     inkscape:window-x="-8"
     inkscape:window-y="-8"
     inkscape:window-maximized="1"
     inkscape:current-layer="layer1" />
  <defs
     id="defs2">
    <inkscape:path-effect
       effect="bspline"
       id="path-effect2129"
       is_visible="true"
       lpeversion="1"
       weight="33.333333"
       steps="2"
       helper_size="0"
       apply_no_weight="true"
       apply_with_weight="true"
       only_selected="false" />
    <inkscape:path-effect
       effect="bspline"
       id="path-effect1979"
       is_visible="true"
       lpeversion="1"
       weight="33.333333"
       steps="2"
       helper_size="0"
       apply_no_weight="true"
       apply_with_weight="true"
       only_selected="false" />
    <inkscape:perspective
       sodipodi:type="inkscape:persp3d"
       inkscape:vp_x="0 : 148.5 : 1"
       inkscape:vp_y="0 : 1000 : 0"
       inkscape:vp_z="210 : 148.5 : 1"
       inkscape:persp3d-origin="105 : 99 : 1"
       id="perspective813" />
  </defs>
  <g
     inkscape:label="Слой 1"
     inkscape:groupmode="layer"
     id="layer1">
    <path
       style="opacity:1;fill:#00ff00;stroke-width:1.25921"
       d="m 105.09255,52.313264 49.826,70.729276 v 0 h -22.03842 l 44.07685,74.71402 h -21.08023 l 36.41131,69.73308 -128.397781,-0.99619 z"
       id="path1123" />
    <path
       style="opacity:1;fill:#00ff00;stroke-width:1.25921"
       d="M 105.09255,51.815176 55.266551,122.54445 v 0 H 77.304975 L 33.22812,197.25847 h 21.080235 l -36.411306,69.73308 128.397781,-0.99618 z"
       id="path1123-3" />
    <rect
       style="opacity:1;fill:#803300;stroke-width:0.979109"
       id="rect1147"
       width="51.950344"
       height="26.244593"
       x="79.288078"
       y="267.64401" />
    <ellipse
       style="opacity:1;fill:#ff0000;stroke-width:0.264583"
       id="path1470"
       cx="65.075195"
       cy="212.88004"
       rx="5.5426817"
       ry="5.132113" />
    <ellipse
       style="opacity:1;fill:#ff0000;stroke-width:0.264583"
       id="path1472"
       cx="120.91258"
       cy="156.83737"
       rx="4.3109751"
       ry="4.10569" />
    <ellipse
       style="opacity:1;fill:#ff0000;stroke-width:0.264583"
       id="path1474"
       cx="143.0833"
       cy="238.95117"
       rx="5.5426817"
       ry="4.9268284" />
    <ellipse
       style="opacity:1;fill:#ff0000;stroke-width:0.264583"
       id="path1476"
       cx="91.762177"
       cy="119.47559"
       rx="5.132113"
       ry="4.5162592" />
    <ellipse
       style="opacity:1;fill:#0000ff;stroke-width:0.264583"
       id="path1532"
       cx="114.95934"
       cy="201.38412"
       rx="4.5162592"
       ry="4.7215438" />
    <ellipse
       style="opacity:1;fill:#0000ff;stroke-width:0.264583"
       id="path1638"
       cx="71.028442"
       cy="164.63818"
       rx="4.5162592"
       ry="4.9268284" />
    <ellipse
       style="fill:#0000ff;stroke-width:0.264583"
       id="path1638-9"
       cx="146.98372"
       cy="181.47151"
       rx="4.5162592"
       ry="4.9268284" />
    <ellipse
       style="opacity:1;fill:#ffcc00;stroke-width:0.264583"
       id="path1640"
       cx="53.784542"
       cy="255.37395"
       rx="4.5162592"
       ry="4.9268284" />
    <ellipse
       style="fill:#ffcc00;stroke-width:0.264583"
       id="path1640-5"
       cx="121.939"
       cy="101.82111"
       rx="4.5162592"
       ry="4.9268284" />
    <ellipse
       style="fill:#ffcc00;stroke-width:0.264583"
       id="path1640-5-5"
       cx="96.894302"
       cy="178.59753"
       rx="4.5162592"
       ry="4.9268284" />
    <ellipse
       style="opacity:1;fill:#800080;stroke-width:0.264583"
       id="path1694"
       cx="123.99185"
       cy="133.64021"
       rx="4.9268284"
       ry="4.7215438" />
    <ellipse
       style="opacity:1;fill:#800080;stroke-width:0.264583"
       id="path1748"
       cx="102.84754"
       cy="241.82516"
       rx="5.132113"
       ry="5.3373976" />
    <ellipse
       style="fill:#800080;stroke-width:0.264583"
       id="path1748-2"
       cx="94.841446"
       cy="90.735756"
       rx="5.132113"
       ry="5.3373976" />
    <path
       sodipodi:type="star"
       style="opacity:1;fill:#ffcc00;stroke-width:0.264583"
       id="path1910"
       inkscape:flatsided="false"
       sodipodi:sides="5"
       sodipodi:cx="104.28454"
       sodipodi:cy="50.089421"
       sodipodi:r1="14.700436"
       sodipodi:r2="7.3502173"
       sodipodi:arg1="0.94405343"
       sodipodi:arg2="1.572372"
       inkscape:rounded="0"
       inkscape:randomized="0"
       d="m 112.90649,61.995922 -8.63353,-4.556293 -8.647849,4.529064 1.665385,-9.618948 -6.979728,-6.825032 9.662796,-1.388543 4.334136,-8.747167 4.30655,8.760781 9.65837,1.418986 -7.0012,6.803004 z"
       inkscape:transform-center-x="-0.0071564985"
       inkscape:transform-center-y="-1.3969582" />
    <path
       style="opacity:1;fill:none;stroke-width:3;stroke:#000000;stroke-opacity:0.472103;stroke-dasharray:none"
       d="m 85.39836,79.239823 c 30.24558,13.138349 60.49083,26.276557 61.17479,32.982447 0.68396,6.7059 -28.19215,6.9796 -49.336652,9.78519 -21.1445,2.80558 -34.556155,8.14287 -21.485886,18.88635 13.070269,10.74347 52.620958,26.8922 69.727808,37.08796 17.10685,10.19576 11.76955,14.43823 -8.55388,19.70725 -20.32343,5.26903 -55.631661,11.56429 -73.970552,15.80691 -18.33889,4.24263 -19.707427,6.43229 3.558807,13.48051 23.266235,7.04822 71.165005,18.95449 93.130325,20.52837 21.96532,1.57388 17.99656,-7.18475 -5.95365,-20.04951 -23.95022,-12.86476 -67.880224,-29.83461 -88.682531,-39.61992 -20.802308,-9.78531 -18.475798,-12.38553 -1.299908,-17.8599 17.17589,-5.47437 49.199639,-13.82244 64.732779,-19.57026 15.53314,-5.74781 14.57517,-8.89544 2.39483,-16.83331 C 118.6543,125.63404 95.252335,112.90665 84.029946,105.85848 72.807558,98.810306 73.765533,97.441771 82.250879,93.814965 90.736225,90.18816 106.74809,84.303456 115.02799,81.498009 c 8.2799,-2.805447 8.82732,-2.531738 9.37443,-2.258186"
       id="path2127"
       inkscape:path-effect="#path-effect2129"
       inkscape:original-d="m 85.39836,79.239823 c 30.24552,13.138476 60.49077,26.276687 90.73576,39.414627 -28.87701,0.27398 -57.75312,0.54769 -86.630069,0.82114 -13.411925,5.33777 -26.82358,10.67506 -40.235767,16.01219 39.552541,16.14964 79.103236,32.29836 118.654456,48.44715 -5.33724,4.24289 -10.67454,8.48536 -16.0122,12.72764 -35.30938,6.29578 -70.617606,12.59105 -105.926807,18.88617 -1.368327,2.19001 -2.736863,4.37967 -4.105693,6.56911 47.900944,11.907 95.79971,23.81327 143.69917,35.7195 -3.96865,-8.75871 -7.93741,-17.51734 -11.90651,-26.27641 -43.9315,-16.97027 -87.861508,-33.94011 -131.79266,-50.91056 2.326871,-2.60006 4.653381,-5.20028 6.979674,-7.80082 32.025291,-8.34813 64.049036,-16.6962 96.073156,-25.04471 -0.95775,-3.14749 -1.91572,-6.29512 -2.87398,-9.44309 -23.40264,-12.72763 -46.804608,-25.45501 -70.207308,-38.18292 0.958279,-1.368322 1.916253,-2.736858 2.873984,-4.105685 16.012776,-5.884678 32.024644,-11.769381 48.036574,-17.654469 0.5477,0.273982 1.09512,0.547691 1.64228,0.821137" />
  </g>
</svg>
